<svg version="1" xmlns="http://www.w3.org/2000/svg" width="718.667" height="718.667" viewBox="0 0 539.000000 539.000000"><path d="M22 269.5V539h494V0H22v269.5zM340.1 25.8c6.4 10.3 21.5 34.4 33.6 53.7 12.1 19.2 31.1 49.6 42.3 67.5 11.1 17.9 21.3 34.1 22.5 36 4.3 6.7 31.2 49.5 33.9 54 1.5 2.5 8.9 14.4 16.6 26.5 18.7 29.5 21 33.4 21 35.1 0 .7-6.1 10.1-13.7 20.6-7.5 10.6-15.8 22.4-18.5 26.3-2.7 3.8-7.7 10.9-11.1 15.7-14.8 20.9-101.4 143.4-103.7 146.7-12.6 18.2-16.4 23.3-18 24.1-1 .6-6.2 1-11.4 1H324v-19.4c0-22 .9-19.9-9.3-21.1-4.7-.5-6-1.1-6.7-2.8-1.9-4.4-20-65.8-20-67.7 0-2.9 7.3-21.9 11.5-29.9 2-3.7 6.8-11 10.7-16.1 8.5-11.2 12.5-19.3 13.6-27.9.5-3.5 1.5-6.7 2.3-7.2 2-1.2 27-1.1 34.4.2 5.6.9 6.7.8 10.2-.9 2.3-1.2 4.7-3.5 5.8-5.6 1.9-3.5 1.9-3.7.1-9-1.1-3.2-1.6-6.5-1.2-8 1-3.9 1-3.9-6.2-6.6-3.9-1.5-6.7-3.2-6.7-4 0-.8 4.1-3.4 9.1-5.9 9-4.6 9.1-4.6 8.3-7.6-.8-3 1-7.5 3-7.5.5 0 2.3-1.2 4-2.6 2.3-1.9 3.1-3.4 3.1-5.8 0-3.5-.7-4.5-12.6-19.7-9.7-12.4-12.2-17-13.6-25.2-.8-4.7-4.4-12.8-14.9-33.6L335 171.7l.6-6.1c.6-6.2.6-6.3-6.1-19.1-3.7-7.2-7.1-13.4-7.6-13.9-1.2-1.3-19 1-32.7 4.4-23.3 5.7-36.3 11.7-59.5 27.3-8.3 5.7-22.7 15.4-31.9 21.6-9.3 6.2-17.2 12-17.8 13.1-.9 1.6 0 2.2 7.8 5.5 11.7 5 15.5 5.5 18.1 2.4 1.1-1.3 3.4-4.1 5.2-6.2 7.3-8.6 18.5-10.7 27.5-5.1 4.5 2.7 13.5 13.6 12.3 14.9-.3.2-11.3 3.6-24.5 7.5-13.1 3.9-24.6 7.4-25.4 7.6-2.3.8.2 2 11.3 5.5 11.8 3.7 18.2 7.8 22.2 14.3 2.9 4.8 3 5.3 2.9 17 0 11.3-.3 12.8-3.7 22.6-2 5.8-3.7 11.1-3.7 11.8 0 .8 1.8 3.4 4 6 2.2 2.5 5.5 7.5 7.3 11.1 3.1 6.4 3.2 6.9 3.2 19.6 0 12.8-.1 13.3-5.4 31-2.9 9.9-5.5 18.8-5.8 19.7-.8 2.6 2.2 6.5 6.6 8.7 6.4 3.3 13.2 12 19.8 25.3 7 14.4 13 21.5 20.7 25.2 2.9 1.4 5.8 3.1 6.4 3.8.5.7 2.6 6.7 4.5 13.3 2.9 9.8 6.5 22.1 15.3 51.7.5 1.7-3.7 1.8-77.7 1.8h-78.2l.7-6.2c1.5-15.1 10-51.2 15.7-67.5 7.2-20.4 11.7-27.6 33.8-54.1 17.1-20.5 22.1-27.3 26.6-36.2 7.2-14.1 7.3-28.4.4-38.1-1.1-1.6-11.8-11.7-23.7-22.3-31.3-27.8-91.2-81.5-105.7-94.6-3.3-3-20.2-18.2-37.5-33.6-32.5-29-35-31.4-33.2-31.4.6 0 3.3-2 6-4.3C71 92.6 125.9 66.6 197.5 48c16.5-4.3 37.7-9 40.3-9 2 .1-.3 2.1-10 9-11.8 8.3-24.3 18.7-33 27.4-13.3 13.3-16.3 21.4-13.9 37.3.7 4.3 1.8 14.5 2.4 22.8l1.2 15 8.5 1.4c14.9 2.5 22.5-.5 26.8-10.3 6-13.4 16.3-17 37-13.1 10.5 2 12.8 1.1 23-9 9.2-9.1 14.6-12 22.5-12 3.1 0 5.7-.2 5.7-.4s-6.5-12.4-14.4-27C272.3 40.6 272 40.2 272 39.3c0-.4 3.7-2.9 8.3-5.5 4.5-2.5 17-9.6 27.7-15.7s19.7-11 20-11c.3 0 5.7 8.4 12.1 18.7zM328 195c2 .5 4.4 1.6 5.4 2.3 1.9 1.4 4.8-.5-49.4 32.4l-15.5 9.4-.8-3.8c-1.6-7.3 2.6-16.3 9.2-19.7 1.5-.8 5.9-1.7 9.8-2 9.1-.7 12.3-2.3 16.1-8.3 5.4-8.3 6.4-9.5 9.6-10.9 3.3-1.5 9.3-1.3 15.6.6zm23.9 25.5c4.1 2.1 8.1 7.2 8.1 10.4 0 1.5-.3 3-.6 3.4-.3.3-3.3-1.3-6.7-3.5-7.6-4.9-9.8-4.8-24.4 1-12.3 4.9-17.3 6.1-17.3 4 0-.9 6.1-4.6 14.8-9.1 15.7-8.2 20.3-9.3 26.1-6.2zM267.3 239c1.4 1.1 3.3 4.1 4.3 6.6 1.5 3.9 1.6 5.4.6 10.8-2.3 12.2-1.1 15.6 5.4 15.6 6.7 0 13.4 5.6 13.4 11.1 0 3.3-1.6 4.4-7.8 5.4-6.1 1-15.1-3.6-23.6-11.9-11.7-11.6-15.1-20.8-10.7-29.5 4.6-8.9 12.8-12.5 18.4-8.1zm89.7 2.7c.6 2.1 1.3 5.8 1.7 8.2.5 3.9.4 4.3-1.3 3.8-1-.3-6.4-1.5-11.9-2.7-12.4-2.7-21.9-2.9-26.1-.8-4.9 2.7-6.5.4-2.1-3.1 2-1.6 30.7-8.9 35.4-9 2.9-.1 3.3.3 4.3 3.6z"/></svg>